<?xml version="1.0" encoding="utf-8"?>
<!-- Generator: Adobe Illustrator 24.3.0, SVG Export Plug-In . SVG Version: 6.00 Build 0)  -->
<svg version="1.1" id="Слой_1" xmlns="http://www.w3.org/2000/svg" xmlns:xlink="http://www.w3.org/1999/xlink" x="0px" y="0px"
	 viewBox="0 0 595.28 841.89" style="enable-background:new 0 0 595.28 841.89;" xml:space="preserve">
<style type="text/css">
	.st0{font-family:'OptimusPrincepsCyr';}
	.st1{font-size:72.0091px;}
</style>
<g>
	<path d="M231.25,343.43l-31.74,14.28v150.96c10.4-1.46,20.99-2.71,31.74-3.77V343.43z"/>
	<path d="M359.59,491.7c8.11,0.5,16.16,1.13,24.13,1.88V300.51l-24.13-12.61V491.7z"/>
	<path d="M244.5,493.58c7.97-0.76,16.02-1.39,24.13-1.88V287.9l-24.13,12.61V493.58z"/>
	<path d="M396.97,343.43v146.72c10.75,0.96,21.35,2.1,31.74,3.42V356.41L396.97,343.43z"/>
	<path d="M314.11,240.06l-32.23,18.61v232.06c5.56-0.26,11.15-0.46,16.76-0.59v-53.84l15.47-8.93l15.47,8.93v53.84
		c5.61,0.13,11.2,0.33,16.76,0.59V258.67L314.11,240.06z"/>
</g>
<path d="M526.98,514.08c0,0-1.77-0.65-5.09-1.72c-3.31-1.11-8.22-2.47-14.45-4.1c-12.46-3.21-30.31-6.96-51.75-9.32
	c-10.72-1.2-22.33-2.04-34.59-2.37c-12.26-0.35-25.17-0.11-38.48,0.68c-6.65,0.41-13.41,1.04-20.23,1.7
	c-3.41,0.41-6.84,0.83-10.28,1.25c-3.44,0.49-6.89,0.99-10.36,1.49c-3.47,0.46-6.93,1.19-10.42,1.77
	c-3.48,0.56-6.96,1.32-10.44,2.01c-6.99,1.28-13.95,3.03-20.91,4.69l-10.42,2.71c-3.48,0.85-6.9,1.99-10.35,2.97l-5.16,1.52
	c-1.81,0.53-3.62,1.05-5.43,1.57c-1.76,0.5-3.52,0.99-5.28,1.49c-1.78,0.49-3.68,0.94-5.52,1.41c-1.85,0.46-3.69,0.92-5.53,1.38
	c-1.83,0.4-3.65,0.79-5.46,1.18c-1.82,0.39-3.63,0.76-5.44,1.1c-1.82,0.3-3.63,0.61-5.45,0.91c-7.23,1.21-14.43,2.1-21.55,2.59
	c-14.22,1.07-28.1,0.52-41.13-1.27c-13.04-1.84-25.23-5.21-36.13-9.5c-5.43-2.24-10.56-4.58-15.32-7.19
	c-4.73-2.64-9.16-5.29-13.14-8.14c-8.02-5.59-14.49-11.4-19.49-16.57c-5.03-5.13-8.54-9.7-10.91-12.79
	c-1.18-1.54-2.03-2.8-2.61-3.63c-0.57-0.83-0.87-1.26-0.87-1.26s1.55,1.25,4.46,3.46c2.89,2.24,7.25,5.3,12.88,8.78
	c5.64,3.45,12.59,7.24,20.79,10.59c8.16,3.43,17.57,6.37,27.92,8.5c5.19,0.98,10.59,1.96,16.23,2.43c2.81,0.33,5.68,0.48,8.58,0.71
	c2.92,0.11,5.87,0.26,8.87,0.24c12,0.07,24.66-0.88,37.69-2.97c6.51-1.15,13.12-2.27,19.79-3.88c1.66-0.39,3.33-0.79,5.01-1.18
	c1.67-0.44,3.34-0.89,5.03-1.33c1.68-0.43,3.36-0.87,5.05-1.3c1.65-0.48,3.3-0.97,4.97-1.45c1.68-0.5,3.3-0.94,5.02-1.48
	c1.74-0.57,3.48-1.14,5.24-1.71l5.11-1.63l5.42-1.67c7.22-2.33,14.53-4.29,21.86-6.22c7.37-1.66,14.74-3.4,22.14-4.67l5.54-1
	c1.85-0.31,3.7-0.53,5.54-0.79c3.7-0.47,7.37-1.09,11.06-1.43c3.68-0.36,7.34-0.79,10.99-1.09c3.66-0.21,7.3-0.41,10.91-0.61
	c7.23-0.27,14.38-0.43,21.41-0.17c14.06,0.34,27.61,1.69,40.36,3.74c12.76,2.06,24.69,4.89,35.57,8.13
	c10.87,3.26,20.68,6.93,29.22,10.66c8.54,3.73,15.81,7.48,21.69,10.86c5.88,3.34,10.33,6.41,13.34,8.49
	C525.47,512.78,526.98,514.08,526.98,514.08z"/>
<text transform="matrix(1 0 0 1 204.5065 578.6404)" class="st0 st1">Initium</text>
</svg>
