<svg width="2424" height="3428" viewBox="0 0 2424 3428" fill="none" xmlns="http://www.w3.org/2000/svg">
<path d="M922.1 2368.4C917.3 2368.2 912.5 2368.1 907.7 2368.1C903.1 2368.1 898.5 2368.1 893.9 2368.1C886.3 2368.1 878.6 2368.2 870.8 2368.4C863.2 2368.4 855.6 2368.5 848 2368.7C847.4 2368.7 847 2368.4 846.8 2367.8C846.8 2367.2 847.1 2366.7 847.7 2366.3C861.3 2361.1 868.1 2351.2 868.1 2336.6V2168.3C868.1 2161.7 865.9 2157.1 861.5 2154.5C857.3 2151.9 852.3 2150.2 846.5 2149.4C845.9 2149.2 845.6 2148.8 845.6 2148.2C845.6 2147.4 845.9 2147 846.5 2147C858.1 2148.2 870 2148.8 882.2 2148.8C887.8 2148.8 893.3 2148.7 898.7 2148.5C904.3 2148.1 909.8 2147.5 915.2 2146.7C915.8 2146.5 916.2 2146.8 916.4 2147.6C916.6 2148.4 916.4 2148.9 915.8 2149.1C912.8 2149.7 910 2150.4 907.4 2151.2C905 2152 902.9 2153.1 901.1 2154.5C899.3 2155.7 897.9 2157.4 896.9 2159.6C895.9 2161.6 895.4 2164.4 895.4 2168V2335.4C895.4 2345.6 897.4 2353 901.4 2357.6C905.4 2362.2 912.3 2365 922.1 2366V2368.4ZM1111.35 2185.4C1110.95 2185.6 1110.65 2185.7 1110.45 2185.7C1110.45 2185.5 1110.25 2185.5 1109.85 2185.7C1107.05 2186.5 1104.05 2187.5 1100.85 2188.7C1097.85 2189.9 1096.35 2192 1096.35 2195L1096.65 2267.3V2279.6C1096.65 2291.2 1096.45 2302.7 1096.05 2314.1C1095.65 2325.3 1094.95 2336.6 1093.95 2348C1093.95 2348.4 1093.65 2348.8 1093.05 2349.2C1092.65 2349.4 1092.25 2349.3 1091.85 2348.9C1082.25 2340.7 1072.65 2331.9 1063.05 2322.5C1053.45 2312.9 1043.95 2303.2 1034.55 2293.4C1025.35 2283.4 1016.25 2273.4 1007.25 2263.4C998.248 2253.2 989.648 2243.3 981.448 2233.7C978.648 2230.7 976.148 2227.9 973.948 2225.3C971.748 2222.5 969.248 2219.6 966.448 2216.6C965.848 2222 965.548 2227.2 965.548 2232.2C965.548 2239.8 965.648 2247.4 965.848 2255C966.048 2262.6 966.348 2270.2 966.748 2277.8C967.148 2285.4 967.448 2293 967.648 2300.6C967.848 2308.2 967.948 2315.9 967.948 2323.7C967.948 2327.1 968.248 2329.9 968.848 2332.1C969.448 2334.1 970.148 2335.7 970.948 2336.9C971.948 2338.1 973.048 2339 974.248 2339.6C975.648 2340 977.048 2340.3 978.448 2340.5C980.048 2340.9 981.648 2341.4 983.248 2342C984.848 2342.4 986.748 2343.4 988.948 2345C989.348 2345.4 989.448 2345.9 989.248 2346.5C989.248 2346.9 988.948 2347.1 988.348 2347.1C986.348 2346.9 984.348 2346.7 982.348 2346.5C980.548 2346.3 978.648 2346.1 976.648 2345.9C973.848 2345.5 970.948 2345.2 967.948 2345C965.148 2344.8 962.348 2344.7 959.548 2344.7C955.948 2344.7 952.248 2345 948.448 2345.6C944.648 2346 940.848 2346.5 937.048 2347.1C936.448 2347.3 935.948 2347.1 935.548 2346.5C935.348 2345.9 935.448 2345.4 935.848 2345C937.448 2343.6 938.848 2342.5 940.048 2341.7C941.448 2340.9 942.748 2340.2 943.948 2339.6C946.348 2338.4 948.448 2336.8 950.248 2334.8C952.248 2332.6 953.248 2329.2 953.248 2324.6V2184.2L955.648 2179.4C955.848 2179 956.148 2178.7 956.548 2178.5C956.948 2178.3 957.248 2178.4 957.448 2178.8C979.248 2201.4 1000.35 2223.7 1020.75 2245.7C1041.15 2267.5 1061.85 2290.1 1082.85 2313.5V2312.6C1082.85 2303.4 1082.75 2294.3 1082.55 2285.3C1082.55 2276.3 1082.45 2267.1 1082.25 2257.7C1082.05 2249.1 1081.85 2240 1081.65 2230.4C1081.45 2220.6 1081.35 2211.4 1081.35 2202.8C1081.35 2199.4 1080.95 2196.7 1080.15 2194.7C1079.55 2192.5 1078.65 2190.9 1077.45 2189.9C1076.25 2188.7 1074.95 2187.9 1073.55 2187.5C1072.15 2187.1 1070.75 2186.8 1069.35 2186.6C1067.75 2186.4 1066.25 2186.2 1064.85 2186C1063.65 2185.6 1062.55 2184.9 1061.55 2183.9C1061.15 2183.5 1061.05 2183 1061.25 2182.4C1061.65 2181.8 1062.05 2181.6 1062.45 2181.8C1067.05 2182.4 1071.35 2182.7 1075.35 2182.7C1079.55 2182.7 1083.75 2182.7 1087.95 2182.7C1090.55 2182.7 1093.15 2182.7 1095.75 2182.7C1098.55 2182.5 1101.35 2182.5 1104.15 2182.7C1105.15 2182.7 1106.25 2182.8 1107.45 2183C1108.65 2183 1109.75 2183 1110.75 2183L1111.35 2185.4ZM1181.51 2347.1C1177.51 2347.1 1173.61 2347.1 1169.81 2347.1C1166.21 2346.9 1162.51 2346.8 1158.71 2346.8C1153.31 2346.8 1148.01 2346.9 1142.81 2347.1C1137.61 2347.1 1132.31 2347.2 1126.91 2347.4C1126.31 2347.4 1125.91 2347.1 1125.71 2346.5C1125.71 2345.7 1126.01 2345.2 1126.61 2345C1131.61 2343.2 1135.21 2340.5 1137.41 2336.9C1139.81 2333.1 1141.01 2328.6 1141.01 2323.4V2198.9C1141.01 2194.3 1139.41 2191.1 1136.21 2189.3C1133.21 2187.5 1129.61 2186.3 1125.41 2185.7C1124.81 2185.5 1124.51 2185.1 1124.51 2184.5C1124.71 2183.7 1125.11 2183.3 1125.71 2183.3C1129.91 2183.7 1134.11 2184 1138.31 2184.2C1142.51 2184.4 1146.81 2184.5 1151.21 2184.5C1155.41 2184.5 1159.61 2184.4 1163.81 2184.2C1168.01 2184 1172.11 2183.6 1176.11 2183C1176.71 2182.8 1177.11 2183.1 1177.31 2183.9C1177.51 2184.7 1177.31 2185.2 1176.71 2185.4C1172.31 2186.4 1168.71 2187.6 1165.91 2189C1163.31 2190.4 1162.01 2193.7 1162.01 2198.9V2322.5C1162.01 2330.1 1163.41 2335.6 1166.21 2339C1169.21 2342.2 1174.31 2344.1 1181.51 2344.7V2347.1ZM1331.92 2182.4C1331.92 2187 1331.82 2191.8 1331.62 2196.8C1331.42 2201.8 1330.72 2206.5 1329.52 2210.9C1329.32 2211.5 1328.92 2211.8 1328.32 2211.8C1327.92 2211.8 1327.62 2211.5 1327.42 2210.9C1325.82 2203.9 1322.62 2199.3 1317.82 2197.1C1313.22 2194.7 1307.72 2193.5 1301.32 2193.5H1274.92V2322.2C1274.92 2328 1276.72 2332.9 1280.32 2336.9C1283.92 2340.9 1288.52 2343.4 1294.12 2344.4C1294.72 2344.6 1294.92 2345.1 1294.72 2345.9C1294.72 2346.5 1294.42 2346.8 1293.82 2346.8C1288.62 2346.4 1283.52 2346.1 1278.52 2345.9C1273.52 2345.5 1268.42 2345.3 1263.22 2345.3C1259.22 2345.3 1255.32 2345.4 1251.52 2345.6C1247.72 2345.8 1243.82 2346.1 1239.82 2346.5C1239.22 2346.7 1238.82 2346.4 1238.62 2345.6C1238.62 2344.8 1238.92 2344.3 1239.52 2344.1C1242.92 2343.3 1245.52 2342.5 1247.32 2341.7C1249.32 2340.7 1250.82 2339.5 1251.82 2338.1C1252.82 2336.7 1253.42 2334.9 1253.62 2332.7C1253.82 2330.3 1253.92 2327.4 1253.92 2324V2193.8H1217.92C1213.12 2193.8 1208.92 2195.4 1205.32 2198.6C1201.72 2201.8 1199.12 2205.5 1197.52 2209.7C1197.32 2210.3 1196.92 2210.5 1196.32 2210.3C1195.72 2210.1 1195.42 2209.7 1195.42 2209.1L1194.82 2205.2C1194.82 2202 1195.22 2199 1196.02 2196.2C1196.82 2193.2 1197.62 2190.5 1198.42 2188.1C1198.82 2186.7 1199.22 2185.4 1199.62 2184.2C1200.02 2182.8 1200.42 2181.4 1200.82 2180C1201.22 2179 1201.82 2178.8 1202.62 2179.4C1205.62 2181.4 1208.62 2182.7 1211.62 2183.3C1214.82 2183.7 1218.22 2183.9 1221.82 2183.9H1317.82C1320.02 2183.9 1322.82 2183.4 1326.22 2182.4C1327.02 2182.2 1327.72 2182 1328.32 2181.8C1328.92 2181.6 1329.62 2181.4 1330.42 2181.2L1331.92 2182.4ZM1402.11 2347.1C1398.11 2347.1 1394.21 2347.1 1390.41 2347.1C1386.81 2346.9 1383.11 2346.8 1379.31 2346.8C1373.91 2346.8 1368.61 2346.9 1363.41 2347.1C1358.21 2347.1 1352.91 2347.2 1347.51 2347.4C1346.91 2347.4 1346.51 2347.1 1346.31 2346.5C1346.31 2345.7 1346.61 2345.2 1347.21 2345C1352.21 2343.2 1355.81 2340.5 1358.01 2336.9C1360.41 2333.1 1361.61 2328.6 1361.61 2323.4V2198.9C1361.61 2194.3 1360.01 2191.1 1356.81 2189.3C1353.81 2187.5 1350.21 2186.3 1346.01 2185.7C1345.41 2185.5 1345.11 2185.1 1345.11 2184.5C1345.31 2183.7 1345.71 2183.3 1346.31 2183.3C1350.51 2183.7 1354.71 2184 1358.91 2184.2C1363.11 2184.4 1367.41 2184.5 1371.81 2184.5C1376.01 2184.5 1380.21 2184.4 1384.41 2184.2C1388.61 2184 1392.71 2183.6 1396.71 2183C1397.31 2182.8 1397.71 2183.1 1397.91 2183.9C1398.11 2184.7 1397.91 2185.2 1397.31 2185.4C1392.91 2186.4 1389.31 2187.6 1386.51 2189C1383.91 2190.4 1382.61 2193.7 1382.61 2198.9V2322.5C1382.61 2330.1 1384.01 2335.6 1386.81 2339C1389.81 2342.2 1394.91 2344.1 1402.11 2344.7V2347.1ZM1578.32 2186C1573.92 2186.8 1570.32 2188.9 1567.52 2192.3C1564.72 2195.5 1563.32 2199.2 1563.32 2203.4V2283.8C1563.32 2293 1561.82 2301.7 1558.82 2309.9C1555.82 2318.1 1551.62 2325.3 1546.22 2331.5C1540.82 2337.5 1534.22 2342.3 1526.42 2345.9C1518.82 2349.3 1510.22 2351 1500.62 2351C1493.62 2351 1486.72 2349.9 1479.92 2347.7C1473.32 2345.3 1467.12 2342 1461.32 2337.8C1455.52 2333.6 1450.32 2328.7 1445.72 2323.1C1441.32 2317.5 1438.02 2311.4 1435.82 2304.8C1435.22 2303.4 1434.72 2301.3 1434.32 2298.5C1434.12 2295.5 1433.92 2292.2 1433.72 2288.6C1433.72 2284.8 1433.62 2280.7 1433.42 2276.3C1433.42 2271.9 1433.42 2267.5 1433.42 2263.1C1433.42 2257.9 1433.42 2252.8 1433.42 2247.8C1433.62 2242.8 1433.72 2238.2 1433.72 2234V2203.7C1433.72 2197.9 1432.12 2193.8 1428.92 2191.4C1425.92 2189 1421.72 2187.1 1416.32 2185.7C1415.72 2185.5 1415.42 2185.1 1415.42 2184.5C1415.62 2183.7 1416.02 2183.3 1416.62 2183.3C1428.02 2183.9 1439.32 2184.2 1450.52 2184.2C1453.72 2184.2 1456.82 2184.2 1459.82 2184.2C1462.82 2184.2 1465.92 2184.1 1469.12 2183.9C1469.72 2183.9 1470.12 2184.2 1470.32 2184.8C1470.52 2185.4 1470.32 2185.9 1469.72 2186.3C1466.52 2187.9 1463.22 2190.3 1459.82 2193.5C1456.62 2196.5 1455.02 2199.8 1455.02 2203.4L1454.42 2295.2C1454.42 2302 1455.52 2308.2 1457.72 2313.8C1460.12 2319.2 1463.42 2323.9 1467.62 2327.9C1471.82 2331.7 1476.72 2334.7 1482.32 2336.9C1488.12 2339.1 1494.32 2340.2 1500.92 2340.2C1507.72 2340.2 1514.02 2339.1 1519.82 2336.9C1525.62 2334.7 1530.62 2331.6 1534.82 2327.6C1539.02 2323.6 1542.22 2318.8 1544.42 2313.2C1546.82 2307.6 1548.02 2301.3 1548.02 2294.3L1547.42 2203.7C1547.42 2197.9 1545.92 2193.7 1542.92 2191.1C1539.92 2188.3 1535.62 2186.4 1530.02 2185.4C1529.42 2185.2 1529.12 2184.8 1529.12 2184.2C1529.32 2183.4 1529.72 2183 1530.32 2183C1535.92 2183.6 1541.42 2183.9 1546.82 2183.9C1548.42 2183.9 1550.02 2183.9 1551.62 2183.9C1553.42 2183.7 1555.12 2183.6 1556.72 2183.6C1560.12 2183.6 1563.62 2183.6 1567.22 2183.6C1570.82 2183.4 1574.42 2183.4 1578.02 2183.6L1578.32 2186ZM1794.61 2346.5C1786.61 2346.5 1778.51 2346.5 1770.31 2346.5C1762.31 2346.5 1754.41 2346.3 1746.61 2345.9C1745.41 2345.9 1745.01 2345.4 1745.41 2344.4C1745.61 2344 1745.71 2343.6 1745.71 2343.2C1745.91 2342.8 1746.11 2342.4 1746.31 2342C1746.91 2340.2 1747.51 2338.4 1748.11 2336.6C1748.71 2334.8 1749.01 2333.1 1749.01 2331.5C1749.01 2320.1 1748.41 2308.9 1747.21 2297.9C1746.21 2286.7 1745.01 2275.5 1743.61 2264.3C1742.81 2257.5 1742.01 2251.5 1741.21 2246.3C1740.61 2240.9 1740.11 2234.7 1739.71 2227.7C1732.11 2242.3 1724.81 2256.9 1717.81 2271.5C1710.81 2286.1 1703.81 2300.9 1696.81 2315.9C1694.41 2320.9 1692.01 2325.9 1689.61 2330.9C1687.41 2335.7 1685.11 2340.6 1682.71 2345.6C1682.51 2346 1682.21 2346.2 1681.81 2346.2C1681.41 2346.2 1681.01 2346 1680.61 2345.6C1671.41 2332.8 1663.41 2319.8 1656.61 2306.6C1650.01 2293.2 1643.71 2279.8 1637.71 2266.4C1634.51 2259.4 1631.61 2253.1 1629.01 2247.5C1626.61 2241.7 1623.71 2235.4 1620.31 2228.6C1619.71 2233.6 1619.11 2238.5 1618.51 2243.3C1617.91 2247.9 1617.31 2252.5 1616.71 2257.1C1615.11 2269.5 1613.71 2281.8 1612.51 2294C1611.31 2306.2 1610.71 2318.6 1610.71 2331.2C1610.71 2334.8 1611.61 2337.3 1613.41 2338.7C1615.21 2339.9 1617.41 2341 1620.01 2342C1620.81 2342.4 1621.91 2342.9 1623.31 2343.5C1624.71 2343.9 1625.61 2344.2 1626.01 2344.4C1626.61 2344.8 1626.81 2345.3 1626.61 2345.9C1626.41 2346.5 1626.01 2346.8 1625.41 2346.8C1622.61 2346.8 1619.81 2346.8 1617.01 2346.8C1614.41 2346.6 1611.71 2346.4 1608.91 2346.2C1606.11 2346 1603.31 2345.9 1600.51 2345.9C1597.71 2345.7 1594.91 2345.6 1592.11 2345.6C1590.11 2345.6 1588.11 2345.6 1586.11 2345.6C1584.31 2345.6 1582.31 2345.8 1580.11 2346.2C1579.51 2346.4 1579.11 2346.1 1578.91 2345.3C1578.71 2344.5 1578.91 2344 1579.51 2343.8C1581.11 2343.4 1582.31 2343.2 1583.11 2343.2C1585.31 2342.8 1587.21 2342.4 1588.81 2342C1590.41 2341.4 1591.91 2340 1593.31 2337.8C1593.71 2337.2 1594.21 2334.6 1594.81 2330C1595.61 2325.4 1596.41 2319.6 1597.21 2312.6C1598.21 2305.4 1599.21 2297.3 1600.21 2288.3C1601.41 2279.3 1602.51 2270.1 1603.51 2260.7C1604.51 2251.3 1605.51 2242.1 1606.51 2233.1C1607.51 2223.9 1608.41 2215.5 1609.21 2207.9C1610.01 2201.3 1610.61 2195.5 1611.01 2190.5C1611.41 2185.3 1611.81 2181.6 1612.21 2179.4C1612.21 2178.8 1612.41 2178.5 1612.81 2178.5C1613.41 2178.3 1613.91 2178.4 1614.31 2178.8C1616.71 2181.4 1620.11 2186.6 1624.51 2194.4C1628.91 2202 1633.61 2210.9 1638.61 2221.1C1643.81 2231.3 1649.11 2242.1 1654.51 2253.5C1660.11 2264.9 1665.21 2275.5 1669.81 2285.3C1673.21 2292.3 1676.01 2298.3 1678.21 2303.3C1680.41 2308.3 1682.41 2312.5 1684.21 2315.9C1687.41 2309.5 1690.61 2302.6 1693.81 2295.2C1697.21 2287.6 1700.51 2280.1 1703.71 2272.7C1710.71 2256.5 1718.11 2240.1 1725.91 2223.5C1733.71 2206.9 1742.01 2192.1 1750.81 2179.1C1751.21 2178.7 1751.61 2178.6 1752.01 2178.8C1752.41 2178.8 1752.61 2179.1 1752.61 2179.7C1753.01 2182.1 1753.31 2185.5 1753.51 2189.9C1753.91 2194.1 1754.41 2199 1755.01 2204.6C1755.61 2212 1756.31 2220.1 1757.11 2228.9C1758.11 2237.7 1759.11 2246.7 1760.11 2255.9C1761.11 2265.1 1762.11 2274.1 1763.11 2282.9C1764.11 2291.5 1765.11 2299.4 1766.11 2306.6C1767.31 2313.8 1768.41 2319.9 1769.41 2324.9C1770.41 2329.7 1771.41 2332.7 1772.41 2333.9C1774.61 2337.1 1776.71 2339.2 1778.71 2340.2C1780.71 2341 1783.11 2341.6 1785.91 2342C1787.31 2342.4 1788.71 2342.7 1790.11 2342.9C1791.71 2342.9 1793.31 2343.3 1794.91 2344.1L1794.61 2346.5Z" fill="white"/>
<path d="M941.658 1398.38L812.411 1456.52V2071.2C854.761 2065.25 897.883 2060.16 941.658 2055.85V1398.38Z" fill="white"/>
<path d="M1464.26 2002.1C1497.29 2004.14 1530.07 2006.7 1562.52 2009.75V1223.61L1464.26 1172.27V2002.1Z" fill="white"/>
<path d="M995.612 2009.75C1028.07 2006.66 1060.85 2004.1 1093.87 2002.1V1172.27L995.612 1223.61V2009.75Z" fill="white"/>
<path d="M1616.47 1398.38V1995.79C1660.25 1999.7 1703.41 2004.34 1745.72 2009.71V1451.23L1616.47 1398.38Z" fill="white"/>
<path d="M1279.07 977.474L1147.82 1053.25V1998.15C1170.47 1997.09 1193.23 1996.28 1216.07 1995.75V1776.52L1279.07 1740.16L1342.06 1776.52V1995.75C1364.9 1996.28 1387.67 1997.09 1410.31 1998.15V1053.25L1279.07 977.474Z" fill="white"/>
<path d="M2145.88 2093.23C2145.88 2093.23 2138.67 2090.58 2125.15 2086.22C2111.67 2081.7 2091.68 2076.17 2066.31 2069.53C2015.57 2056.46 1942.89 2041.19 1855.58 2031.58C1811.93 2026.69 1764.66 2023.27 1714.73 2021.93C1664.81 2020.5 1612.24 2021.48 1558.04 2024.7C1530.96 2026.37 1503.44 2028.93 1475.66 2031.62C1461.78 2033.29 1447.81 2035 1433.8 2036.71C1419.8 2038.7 1405.75 2040.74 1391.62 2042.78C1377.49 2044.65 1363.4 2047.62 1349.19 2049.98C1335.02 2052.26 1320.85 2055.36 1306.67 2058.17C1278.21 2063.38 1249.87 2070.51 1221.53 2077.26L1179.1 2088.3C1164.93 2091.76 1151 2096.4 1136.95 2100.39L1115.94 2106.58C1108.57 2108.74 1101.2 2110.86 1093.83 2112.97C1086.66 2115.01 1079.5 2117.01 1072.33 2119.04C1065.08 2121.04 1057.34 2122.87 1049.85 2124.78C1042.32 2126.66 1034.83 2128.53 1027.33 2130.4C1019.88 2132.03 1012.47 2133.62 1005.1 2135.21C997.689 2136.79 990.318 2138.3 982.948 2139.69C975.537 2140.91 968.167 2142.17 960.755 2143.39C931.315 2148.32 901.996 2151.94 873.003 2153.94C815.099 2158.29 758.579 2156.05 705.52 2148.77C652.421 2141.27 602.783 2127.55 558.398 2110.08C536.287 2100.96 515.397 2091.43 496.014 2080.81C476.754 2070.06 458.714 2059.27 442.508 2047.66C409.85 2024.9 383.504 2001.24 363.144 1980.19C342.661 1959.3 328.369 1940.7 318.718 1928.11C313.913 1921.84 310.452 1916.71 308.09 1913.33C305.769 1909.95 304.547 1908.2 304.547 1908.2C304.547 1908.2 310.859 1913.29 322.709 1922.29C334.477 1931.41 352.231 1943.87 375.156 1958.04C398.123 1972.09 426.423 1987.52 459.814 2001.16C493.042 2015.13 531.359 2027.1 573.505 2035.77C594.639 2039.76 616.628 2043.75 639.594 2045.67C651.037 2047.01 662.723 2047.62 674.532 2048.56C686.423 2049.01 698.435 2049.62 710.651 2049.54C759.516 2049.82 811.068 2045.95 864.126 2037.44C890.635 2032.76 917.551 2028.2 944.712 2021.64C951.471 2020.06 958.271 2018.43 965.113 2016.84C971.913 2015.05 978.713 2013.22 985.595 2011.42C992.436 2009.67 999.277 2007.88 1006.16 2006.13C1012.88 2004.18 1019.6 2002.18 1026.4 2000.23C1033.24 1998.19 1039.83 1996.4 1046.84 1994.2C1053.92 1991.88 1061.01 1989.56 1068.18 1987.24L1088.98 1980.6L1111.05 1973.8C1140.45 1964.31 1170.22 1956.33 1200.07 1948.47C1230.08 1941.71 1260.09 1934.63 1290.22 1929.46L1312.78 1925.39C1320.32 1924.12 1327.85 1923.23 1335.34 1922.17C1350.41 1920.26 1365.35 1917.73 1380.38 1916.35C1395.36 1914.88 1410.27 1913.13 1425.13 1911.91C1440.03 1911.05 1454.86 1910.24 1469.56 1909.43C1499 1908.33 1528.11 1907.67 1556.74 1908.73C1613.99 1910.12 1669.17 1915.61 1721.09 1923.96C1773.04 1932.35 1821.62 1943.87 1865.93 1957.07C1910.19 1970.34 1950.14 1985.28 1984.91 2000.47C2019.69 2015.66 2049.29 2030.93 2073.23 2044.69C2097.18 2058.29 2115.3 2070.79 2127.56 2079.26C2139.73 2087.93 2145.88 2093.23 2145.88 2093.23Z" fill="white"/>
</svg>
